<?xml version="1.0" encoding="UTF-8"?>
<svg xmlns="http://www.w3.org/2000/svg" width="680" height="400" viewBox="0 0 680 400" role="img" aria-labelledby="title description">
<title id="title">Traffic share pie chart</title>
<desc id="description">Traffic share pie chart</desc>
<metadata>Generated from the Graflume compile() Scene using Canvas-equivalent primitives.</metadata>
<defs><clipPath id="clip-1"><rect x="56" y="88" width="600" height="268"/></clipPath></defs>
<rect width="100%" height="100%" fill="#000000"/>
<g data-scene-node="scene:root"><rect data-scene-node="chart:panel" x="56" y="88" width="600" height="268" rx="0" fill="#000000"/><g data-scene-node="layer-0:group" clip-path="url(#clip-1)"><path data-scene-node="layer-0:slice:0" d="M 356 222 L 356 125.52 L 364.192 125.868 L 372.324 126.911 L 380.339 128.64 L 388.178 131.044 L 395.784 134.105 L 403.103 137.8 L 410.082 142.103 L 416.671 146.984 L 422.821 152.406 L 428.489 158.33 L 433.633 164.715 L 438.216 171.513 L 442.206 178.676 L 445.573 186.152 L 448.293 193.887 L 450.347 201.824 L 451.719 209.908 L 452.4 218.079 L 452.385 226.278 L 451.674 234.446 L 450.272 242.524 L 448.189 250.454 L 445.44 258.179 L 442.045 265.642 L 438.029 272.79 L 433.42 279.571 L 428.253 285.937 L 422.563 291.841 L 416.393 297.24 L 409.787 302.096 L 402.792 306.374 L 395.459 310.042 L 387.841 313.074 L 379.994 315.449 Z" fill="#ffff00" stroke="#000000" stroke-width="2"/><path data-scene-node="layer-0:slice:1" d="M 356 222 L 379.994 315.449 L 372.09 317.129 L 364.073 318.142 L 356 318.48 L 347.927 318.142 L 339.91 317.129 L 332.006 315.449 L 324.271 313.113 L 316.758 310.139 L 309.52 306.546 L 302.609 302.36 L 296.072 297.611 L 289.955 292.331 L 284.301 286.558 L 279.151 280.332 L 274.539 273.697 L 270.499 266.699 L 267.059 259.388 L 264.242 251.814 L 262.069 244.031 L 260.555 236.094 L 259.71 228.058 Z" fill="#00ffff" stroke="#000000" stroke-width="2"/><path data-scene-node="layer-0:slice:2" d="M 356 222 L 259.71 228.058 L 259.538 220.135 L 260.017 212.224 L 261.143 204.38 L 262.909 196.654 L 265.303 189.099 L 268.309 181.767 L 271.907 174.705 L 276.072 167.963 L 280.777 161.586 L 285.989 155.616 L 291.674 150.094 L 297.792 145.057 L 304.303 140.539 Z" fill="#ff00ff" stroke="#000000" stroke-width="2"/><path data-scene-node="layer-0:slice:3" d="M 356 222 L 304.303 140.539 L 310.186 137.091 L 316.297 134.068 L 322.607 131.483 L 329.083 129.351 L 335.694 127.681 L 342.406 126.483 L 349.186 125.761 L 356 125.52 Z" fill="#00ff00" stroke="#000000" stroke-width="2"/><text data-scene-node="layer-0:label:0" x="417.26" y="214.261" fill="#0f172a" font-family="Inter, ui-sans-serif, system-ui, -apple-system, BlinkMacSystemFont, &quot;Segoe UI&quot;, sans-serif" font-size="10.5" font-weight="700" text-anchor="middle" dominant-baseline="central">Search · 46%</text><text data-scene-node="layer-0:label:1" x="319.706" y="271.955" fill="#0f172a" font-family="Inter, ui-sans-serif, system-ui, -apple-system, BlinkMacSystemFont, &quot;Segoe UI&quot;, sans-serif" font-size="10.5" font-weight="700" text-anchor="middle" dominant-baseline="central">Direct · 28%</text><text data-scene-node="layer-0:label:2" x="300.983" y="193.967" fill="#ffffff" font-family="Inter, ui-sans-serif, system-ui, -apple-system, BlinkMacSystemFont, &quot;Segoe UI&quot;, sans-serif" font-size="10.5" font-weight="700" text-anchor="middle" dominant-baseline="central">Social · 17%</text><text data-scene-node="layer-0:label:3" x="338.773" y="162.705" fill="#0f172a" font-family="Inter, ui-sans-serif, system-ui, -apple-system, BlinkMacSystemFont, &quot;Segoe UI&quot;, sans-serif" font-size="10.5" font-weight="700" text-anchor="middle" dominant-baseline="central">Other · 9%</text></g><rect data-scene-node="chart:plot-box" x="56" y="88" width="600" height="268" rx="0" fill="none" stroke="#ffffff" stroke-width="2"/><text data-scene-node="chart:title" x="56" y="24" fill="#ffffff" font-family="Inter, ui-sans-serif, system-ui, -apple-system, BlinkMacSystemFont, &quot;Segoe UI&quot;, sans-serif" font-size="24" font-weight="700" text-anchor="start" dominant-baseline="text-before-edge">Traffic share</text><text data-scene-node="chart:subtitle" x="56" y="54" fill="#f5f5f5" font-family="Inter, ui-sans-serif, system-ui, -apple-system, BlinkMacSystemFont, &quot;Segoe UI&quot;, sans-serif" font-size="14" font-weight="600" text-anchor="start" dominant-baseline="text-before-edge">Pie chart</text></g>
</svg>
