<?xml version="1.0" encoding="UTF-8"?>
<svg xmlns="http://www.w3.org/2000/svg" width="680" height="400" viewBox="0 0 680 400" role="img" aria-labelledby="title description">
<title id="title">Traffic share pie chart</title>
<desc id="description">Traffic share pie chart</desc>
<metadata>Generated from the Graflume compile() Scene using Canvas-equivalent primitives.</metadata>
<defs><clipPath id="clip-1"><rect x="56" y="93" width="600" height="263"/></clipPath></defs>
<rect width="100%" height="100%" fill="#ffffff"/>
<g data-scene-node="scene:root"><rect data-scene-node="chart:panel" x="56" y="93" width="600" height="263" rx="0" fill="#f8fafc"/><g data-scene-node="layer-0:group" clip-path="url(#clip-1)"><path data-scene-node="layer-0:slice:Search" d="M 356 224.5 L 356 135.08 L 361.739 135.264 L 367.455 135.817 L 373.123 136.735 L 378.721 138.015 L 384.225 139.652 L 389.613 141.638 L 394.862 143.966 L 399.951 146.627 L 404.859 149.608 L 409.565 152.899 L 414.05 156.484 L 418.296 160.35 L 422.285 164.481 L 426 168.859 L 429.427 173.467 L 432.551 178.285 L 435.36 183.294 L 437.841 188.472 L 439.985 193.799 L 441.782 199.253 L 443.225 204.811 L 444.309 210.45 L 445.029 216.147 L 445.382 221.878 L 445.366 227.621 L 444.981 233.35 L 444.229 239.043 L 443.114 244.676 L 441.64 250.226 L 439.812 255.669 L 437.638 260.984 L 435.128 266.149 L 432.292 271.142 L 429.141 275.943 L 425.688 280.531 L 421.948 284.888 L 417.936 288.997 L 413.669 292.839 L 409.164 296.399 L 404.44 299.663 L 399.515 302.618 L 394.412 305.249 L 389.15 307.548 L 383.751 309.505 L 378.238 311.111 Z" fill="#2563eb" stroke="#ffffff" stroke-width="1.5" stroke-linejoin="round"/><path data-scene-node="layer-0:slice:Direct" d="M 356 224.5 L 378.238 311.111 L 372.551 312.375 L 366.794 313.266 L 360.992 313.781 L 355.168 313.916 L 349.347 313.672 L 343.555 313.05 L 337.816 312.052 L 332.154 310.682 L 326.593 308.946 L 321.157 306.852 L 315.868 304.409 L 310.75 301.626 L 305.825 298.516 L 301.112 295.092 L 296.632 291.368 L 292.404 287.361 L 288.446 283.086 L 284.774 278.563 L 281.405 273.811 L 278.353 268.849 L 275.63 263.699 L 273.248 258.383 L 271.217 252.923 L 269.547 247.342 L 268.243 241.664 L 267.311 235.914 L 266.756 230.115 Z" fill="#e11d48" stroke="#ffffff" stroke-width="1.5" stroke-linejoin="round"/><path data-scene-node="layer-0:slice:Social" d="M 356 224.5 L 266.756 230.115 L 266.58 224.5 L 266.756 218.885 L 267.285 213.293 L 268.164 207.744 L 269.389 202.262 L 270.957 196.868 L 272.859 191.582 L 275.09 186.427 L 277.641 181.422 L 280.5 176.586 L 283.658 171.94 L 287.101 167.502 L 290.816 163.288 L 294.788 159.316 L 299.002 155.601 L 303.44 152.158 L 308.086 149 Z" fill="#059669" stroke="#ffffff" stroke-width="1.5" stroke-linejoin="round"/><path data-scene-node="layer-0:slice:Other" d="M 356 224.5 L 308.086 149 L 312.922 146.141 L 317.927 143.59 L 323.082 141.359 L 328.368 139.457 L 333.762 137.889 L 339.244 136.664 L 344.793 135.785 L 350.385 135.256 L 356 135.08 Z" fill="#f59e0b" stroke="#ffffff" stroke-width="1.5" stroke-linejoin="round"/><path data-scene-node="layer-0:slice-leader:Other" d="M 332.051 142.065 L 329.057 131.761 L 64 130.044" fill="none" stroke="#f59e0b" stroke-width="1" stroke-linecap="round" stroke-linejoin="round"/><path data-scene-node="layer-0:slice-leader:Social" d="M 279.513 185.528 L 269.952 180.657 L 64 179.845" fill="none" stroke="#059669" stroke-width="1" stroke-linecap="round" stroke-linejoin="round"/><path data-scene-node="layer-0:slice-leader:Direct" d="M 305.543 293.949 L 299.235 302.63 L 64 304.077" fill="none" stroke="#e11d48" stroke-width="1" stroke-linecap="round" stroke-linejoin="round"/><path data-scene-node="layer-0:slice-leader:Search" d="M 441.166 213.741 L 451.812 212.396 L 648 212.172" fill="none" stroke="#2563eb" stroke-width="1" stroke-linecap="round" stroke-linejoin="round"/><text data-scene-node="layer-0:slice-label:Other" x="60" y="130.044" fill="#0f172a" font-family="Inter, ui-sans-serif, system-ui, -apple-system, BlinkMacSystemFont, &quot;Segoe UI&quot;, sans-serif" font-size="10" font-weight="600" text-anchor="start" dominant-baseline="central">Other: 9 (9.0%)</text><text data-scene-node="layer-0:slice-label:Social" x="60" y="179.845" fill="#0f172a" font-family="Inter, ui-sans-serif, system-ui, -apple-system, BlinkMacSystemFont, &quot;Segoe UI&quot;, sans-serif" font-size="10" font-weight="600" text-anchor="start" dominant-baseline="central">Social: 17 (17.0%)</text><text data-scene-node="layer-0:slice-label:Direct" x="60" y="304.077" fill="#0f172a" font-family="Inter, ui-sans-serif, system-ui, -apple-system, BlinkMacSystemFont, &quot;Segoe UI&quot;, sans-serif" font-size="10" font-weight="600" text-anchor="start" dominant-baseline="central">Direct: 28 (28.0%)</text><text data-scene-node="layer-0:slice-label:Search" x="652" y="212.172" fill="#0f172a" font-family="Inter, ui-sans-serif, system-ui, -apple-system, BlinkMacSystemFont, &quot;Segoe UI&quot;, sans-serif" font-size="6" font-weight="600" text-anchor="end" dominant-baseline="central">Search: 46 (46.0%)</text></g><text data-scene-node="chart:title" x="56" y="24" fill="#0f172a" font-family="Inter, ui-sans-serif, system-ui, -apple-system, BlinkMacSystemFont, &quot;Segoe UI&quot;, sans-serif" font-size="26" font-weight="700" text-anchor="start" dominant-baseline="text-before-edge">Traffic share</text><text data-scene-node="chart:subtitle" x="56" y="56" fill="#475569" font-family="Inter, ui-sans-serif, system-ui, -apple-system, BlinkMacSystemFont, &quot;Segoe UI&quot;, sans-serif" font-size="15" font-weight="400" text-anchor="start" dominant-baseline="text-before-edge">Pie chart</text></g>
</svg>
